<svg xmlns="http://www.w3.org/2000/svg" xmlns:xlink="http://www.w3.org/1999/xlink" preserveAspectRatio="xMidYMid" width="6.94" height="13.72" viewBox="0 0 6.94 13.72">
  <defs>
    <style>
      .cls-1 {
        fill: #606060;
        fill-rule: evenodd;
      }
    </style>
  </defs>
  <path d="M1.549,2.651 C1.549,2.996 1.562,4.687 1.562,4.687 L0.009,4.687 L0.009,6.852 L1.549,6.848 L1.562,13.709 L4.668,13.709 L4.668,6.852 L6.657,6.848 C6.657,6.848 6.808,5.897 6.901,4.687 C6.634,4.687 4.668,4.687 4.668,4.687 C4.668,4.687 4.618,3.187 4.618,2.952 C4.618,2.716 4.951,2.398 5.281,2.398 C5.609,2.398 6.303,2.398 6.946,2.398 C6.946,2.084 6.946,0.998 6.946,-0.005 C6.088,-0.005 5.112,-0.005 4.682,-0.005 C1.474,-0.005 1.549,2.306 1.549,2.651 Z" class="cls-1"/>
</svg>
