<svg xmlns="http://www.w3.org/2000/svg" xmlns:xlink="http://www.w3.org/1999/xlink" preserveAspectRatio="xMidYMid" width="14.66" height="14.47" viewBox="0 0 14.66 14.47">
  <defs>
    <style>
      .cls-1 {
        fill: #606060;
        fill-rule: evenodd;
      }
    </style>
  </defs>
  <path d="M12.950,3.446 C12.950,3.950 12.536,4.359 12.026,4.359 L11.149,4.359 C10.638,4.359 10.225,3.950 10.225,3.446 L10.225,2.579 C10.225,2.075 10.638,1.666 11.149,1.666 L12.026,1.666 C12.536,1.666 12.950,2.075 12.950,2.579 L12.950,3.446 L12.950,3.446 ZM12.950,11.863 C12.950,12.367 12.475,12.776 11.965,12.776 L2.728,12.776 C2.218,12.776 1.708,12.367 1.708,11.863 L1.708,7.298 C1.708,6.794 2.218,6.379 2.728,6.379 C2.728,6.379 2.962,6.379 3.251,6.379 C3.287,6.379 3.321,6.383 3.353,6.389 C3.548,6.425 3.673,6.564 3.686,6.743 C3.689,6.773 3.687,6.804 3.683,6.835 C3.680,6.857 3.731,6.879 3.729,6.900 C3.713,7.030 3.752,7.163 3.752,7.297 C3.752,7.297 3.752,7.297 3.752,7.298 C3.752,9.291 5.320,10.909 7.329,10.946 C7.306,10.946 7.259,10.949 7.236,10.949 C7.259,10.949 7.269,10.946 7.291,10.946 C7.314,10.946 7.330,10.949 7.353,10.949 C9.393,10.949 11.044,9.314 11.045,7.298 C11.045,7.164 11.031,7.031 11.016,6.900 C11.014,6.879 11.014,6.856 11.011,6.835 C11.007,6.804 11.005,6.773 11.008,6.743 C11.021,6.564 11.146,6.425 11.340,6.389 C11.373,6.383 11.407,6.379 11.443,6.379 L11.965,6.379 C12.475,6.379 12.950,6.794 12.950,7.299 L12.950,11.863 L12.950,11.863 ZM5.499,7.298 C5.499,7.298 5.646,5.473 7.347,5.473 C9.048,5.473 9.194,7.298 9.194,7.298 C9.194,7.298 9.248,9.124 7.347,9.124 C5.446,9.124 5.499,7.298 5.499,7.298 ZM12.806,-0.018 L1.852,-0.018 C0.832,-0.018 0.004,0.800 0.004,1.808 L0.004,12.634 C0.004,13.642 0.832,14.460 1.852,14.460 L12.806,14.460 C13.826,14.460 14.653,13.642 14.653,12.634 L14.653,1.808 C14.653,0.800 13.826,-0.018 12.806,-0.018 " class="cls-1"/>
</svg>
