<svg xmlns="http://www.w3.org/2000/svg" xmlns:xlink="http://www.w3.org/1999/xlink" preserveAspectRatio="xMidYMid" width="14.65" height="12.18" viewBox="0 0 14.65 12.18">
  <defs>
    <style>
      .cls-1 {
        fill: #606060;
        fill-rule: evenodd;
      }
    </style>
  </defs>
  <path d="M14.235,0.232 C13.654,0.585 13.010,0.841 12.325,0.979 C11.777,0.380 10.997,0.007 10.132,0.007 C8.473,0.007 7.127,1.385 7.127,3.084 C7.127,3.325 7.154,3.561 7.205,3.786 C4.708,3.657 2.493,2.431 1.011,0.570 C0.753,1.023 0.605,1.552 0.605,2.117 C0.605,3.185 1.136,4.127 1.941,4.678 C1.449,4.661 0.986,4.523 0.580,4.292 L0.580,4.330 C0.580,5.822 1.616,7.065 2.990,7.349 C2.739,7.419 2.473,7.457 2.199,7.457 C2.005,7.457 1.817,7.437 1.633,7.401 C2.016,8.624 3.125,9.514 4.440,9.540 C3.412,10.365 2.115,10.857 0.708,10.857 C0.465,10.857 0.226,10.842 -0.009,10.814 C1.321,11.687 2.900,12.197 4.597,12.197 C10.125,12.197 13.147,7.507 13.147,3.439 L13.137,3.040 C13.726,2.608 14.236,2.066 14.639,1.449 C14.100,1.694 13.521,1.860 12.913,1.934 C13.534,1.553 14.009,0.949 14.235,0.232 Z" class="cls-1"/>
</svg>
